<svg width="57" height="47" viewBox="0 0 57 47" fill="none" xmlns="http://www.w3.org/2000/svg">
<line x1="2" y1="22.3947" x2="40.2295" y2="22.3947" stroke="black" stroke-width="3"/>
<path d="M2 8.28744H41.3755C43.6556 8.28744 45.882 8.97964 47.7601 10.2725V10.2725C50.4657 12.1349 52.2232 15.0857 52.5721 18.3517L54.7231 38.4889C54.8992 40.1377 54.3623 41.7832 53.2477 43.0109L53.1138 43.1583C52.4033 43.9408 51.4702 44.487 50.44 44.7234V44.7234C46.9769 45.518 43.3482 44.4805 40.8285 41.9752L2 3.36841" stroke="black" stroke-width="3"/>
<path d="M2 38.7125H41.3755C43.6556 38.7125 45.882 38.0203 47.7601 36.7275V36.7275C50.4657 34.8651 52.2232 31.9143 52.5721 28.6483L54.7231 8.51107C54.8992 6.86224 54.3623 5.21673 53.2477 3.98907L53.1138 3.84167C52.4033 3.05914 51.4702 2.51296 50.44 2.27658V2.27658C46.9769 1.48195 43.3482 2.51948 40.8285 5.02474L2 43.6316" stroke="black" stroke-width="3"/>
</svg>
